<!DOCTYPE svg PUBLIC "-//W3C//DTD SVG 1.1//EN" "http://www.w3.org/Graphics/SVG/1.1/DTD/svg11.dtd"[]><svg xmlns="http://www.w3.org/2000/svg" version="1.1" width="24" height="24" style="shape-rendering:geometricPrecision; text-rendering:geometricPrecision; image-rendering:optimizeQuality; fill-rule:evenodd; clip-rule:evenodd" xmlns:xlink="http://www.w3.org/1999/xlink" viewBox="-30 -30 542 542"><g><path style="opacity:0.975" d="M 16.5,-0.5 C 40.8333,-0.5 65.1667,-0.5 89.5,-0.5C 109.151,4.98517 121.651,17.6518 127,37.5C 127.5,158.166 127.667,278.833 127.5,399.5C 135.84,399.666 144.173,399.5 152.5,399C 151.695,394.251 151.195,389.418 151,384.5C 150.333,339.167 150.333,293.833 151,248.5C 151.021,236.15 156.854,227.984 168.5,224C 189.833,223.667 211.167,223.333 232.5,223C 231.695,218.251 231.195,213.418 231,208.5C 230.333,163.167 230.333,117.833 231,72.5C 231.021,60.1504 236.854,51.9837 248.5,48C 295.833,47.3333 343.167,47.3333 390.5,48C 398.667,50.8333 404.167,56.3333 407,64.5C 408.1,90.4816 408.6,116.482 408.5,142.5C 408.333,164.167 408.167,185.833 408,207.5C 407.807,212.75 407.307,217.917 406.5,223C 427.833,223.333 449.167,223.667 470.5,224C 483.865,229.213 489.698,239.047 488,253.5C 488.667,296.833 488.667,340.167 488,383.5C 487.807,388.75 487.307,393.917 486.5,399C 498.873,399.225 507.206,405.058 511.5,416.5C 511.5,426.5 511.5,436.5 511.5,446.5C 508.832,453.341 504.166,458.508 497.5,462C 486.244,463.433 474.91,463.933 463.5,463.5C 458.444,489.023 443.444,505.023 418.5,511.5C 411.167,511.5 403.833,511.5 396.5,511.5C 371.556,505.023 356.556,489.023 351.5,463.5C 314.167,463.5 276.833,463.5 239.5,463.5C 234.444,489.023 219.444,505.023 194.5,511.5C 187.167,511.5 179.833,511.5 172.5,511.5C 147.556,505.023 132.556,489.023 127.5,463.5C 116.09,463.933 104.756,463.433 93.5,462C 86.8513,458.686 82.3513,453.519 80,446.5C 79.6667,315.5 79.3333,184.5 79,53.5C 78.5,50.3333 76.6667,48.5 73.5,48C 54.5,47.6667 35.5,47.3333 16.5,47C 8.31563,43.9809 2.64896,38.4809 -0.5,30.5C -0.5,25.8333 -0.5,21.1667 -0.5,16.5C 2.83333,8.5 8.5,2.83333 16.5,-0.5 Z M 23.5,15.5 C 42.1696,15.3334 60.8363,15.5001 79.5,16C 95.1815,17.4108 105.348,25.5774 110,40.5C 111.382,56.1275 111.882,71.7942 111.5,87.5C 106.167,87.5 100.833,87.5 95.5,87.5C 95.6666,73.8293 95.4999,60.1626 95,46.5C 92.1667,39.6667 87.3333,34.8333 80.5,32C 60.4355,31.9645 40.4355,31.2978 20.5,30C 16.0663,26.7331 15.3997,22.7331 18.5,18C 20.3146,17.2432 21.9812,16.4098 23.5,15.5 Z M 255.5,63.5 C 266.167,63.5 276.833,63.5 287.5,63.5C 287.032,78.9296 287.532,94.2629 289,109.5C 289.75,110.126 290.584,110.626 291.5,111C 310.167,111.667 328.833,111.667 347.5,111C 348.416,110.626 349.25,110.126 350,109.5C 351.468,94.2629 351.968,78.9296 351.5,63.5C 362.172,63.3335 372.839,63.5002 383.5,64C 388,64.5 390.5,67 391,71.5C 391.667,119.5 391.667,167.5 391,215.5C 390.5,220 388,222.5 383.5,223C 340.833,223.667 298.167,223.667 255.5,223C 252.506,222.594 250.339,221.094 249,218.5C 247.348,169.559 247.014,120.559 248,71.5C 248.68,66.9895 251.18,64.3228 255.5,63.5 Z M 303.5,63.5 C 314.167,63.5 324.833,63.5 335.5,63.5C 335.5,74.1667 335.5,84.8333 335.5,95.5C 324.833,95.5 314.167,95.5 303.5,95.5C 303.5,84.8333 303.5,74.1667 303.5,63.5 Z M 95.5,103.5 C 100.833,103.5 106.167,103.5 111.5,103.5C 111.5,202.167 111.5,300.833 111.5,399.5C 106.167,399.5 100.833,399.5 95.5,399.5C 95.5,300.833 95.5,202.167 95.5,103.5 Z M 175.5,239.5 C 186.167,239.5 196.833,239.5 207.5,239.5C 207.032,254.93 207.532,270.263 209,285.5C 209.75,286.126 210.584,286.626 211.5,287C 230.167,287.667 248.833,287.667 267.5,287C 268.416,286.626 269.25,286.126 270,285.5C 271.468,270.263 271.968,254.93 271.5,239.5C 282.172,239.333 292.839,239.5 303.5,240C 308,240.5 310.5,243 311,247.5C 311.667,295.5 311.667,343.5 311,391.5C 310.5,396 308,398.5 303.5,399C 260.833,399.667 218.167,399.667 175.5,399C 172.506,398.594 170.339,397.094 169,394.5C 167.348,345.559 167.014,296.559 168,247.5C 168.68,242.989 171.18,240.323 175.5,239.5 Z M 223.5,239.5 C 234.167,239.5 244.833,239.5 255.5,239.5C 255.5,250.167 255.5,260.833 255.5,271.5C 244.833,271.5 234.167,271.5 223.5,271.5C 223.5,260.833 223.5,250.167 223.5,239.5 Z M 335.5,239.5 C 346.167,239.5 356.833,239.5 367.5,239.5C 367.032,254.93 367.532,270.263 369,285.5C 369.75,286.126 370.584,286.626 371.5,287C 390.167,287.667 408.833,287.667 427.5,287C 428.416,286.626 429.25,286.126 430,285.5C 431.468,270.263 431.968,254.93 431.5,239.5C 442.172,239.333 452.839,239.5 463.5,240C 468,240.5 470.5,243 471,247.5C 471.667,295.5 471.667,343.5 471,391.5C 470.5,396 468,398.5 463.5,399C 420.833,399.667 378.167,399.667 335.5,399C 332.506,398.594 330.339,397.094 329,394.5C 327.348,345.559 327.014,296.559 328,247.5C 328.68,242.989 331.18,240.323 335.5,239.5 Z M 383.5,239.5 C 394.167,239.5 404.833,239.5 415.5,239.5C 415.5,250.167 415.5,260.833 415.5,271.5C 404.833,271.5 394.167,271.5 383.5,271.5C 383.5,260.833 383.5,250.167 383.5,239.5 Z M 95.5,415.5 C 111.181,415.167 126.848,415.501 142.5,416.5C 134.259,425.202 129.259,435.536 127.5,447.5C 119.493,447.666 111.493,447.5 103.5,447C 99,446.5 96.5,444 96,439.5C 95.5003,431.507 95.3336,423.507 95.5,415.5 Z M 224.5,415.5 C 271.838,415.167 319.171,415.5 366.5,416.5C 358.259,425.202 353.259,435.536 351.5,447.5C 314.167,447.5 276.833,447.5 239.5,447.5C 238.377,441.297 236.544,435.297 234,429.5C 231.061,424.603 227.894,419.936 224.5,415.5 Z M 448.5,415.5 C 461.504,415.333 474.504,415.5 487.5,416C 490.494,416.406 492.661,417.906 494,420.5C 495.536,426.749 495.87,433.083 495,439.5C 494.5,444 492,446.5 487.5,447C 479.507,447.5 471.507,447.666 463.5,447.5C 462.377,441.297 460.544,435.297 458,429.5C 455.061,424.603 451.894,419.936 448.5,415.5 Z M 175.5,416.5 C 199.48,414.339 214.98,424.673 222,447.5C 224.648,471.501 214.482,487.001 191.5,494C 167.499,496.648 151.999,486.482 145,463.5C 142.559,439.474 152.726,423.807 175.5,416.5 Z M 399.5,416.5 C 423.48,414.339 438.98,424.673 446,447.5C 448.648,471.501 438.482,487.001 415.5,494C 391.499,496.648 375.999,486.482 369,463.5C 366.559,439.474 376.726,423.807 399.5,416.5 Z M 180.5,448.5 C 189.85,448.365 192.517,452.532 188.5,461C 179.956,464.322 176.123,461.489 177,452.5C 177.69,450.65 178.856,449.316 180.5,448.5 Z M 404.5,448.5 C 413.85,448.365 416.517,452.532 412.5,461C 403.956,464.322 400.123,461.489 401,452.5C 401.69,450.65 402.856,449.316 404.5,448.5 Z" /></g><g><path style="opacity:0.95" d="M 347.5,191.5 C 355.507,191.334 363.507,191.5 371.5,192C 373.333,192.5 374.5,193.667 375,195.5C 375.667,198.167 375.667,200.833 375,203.5C 374.5,205.333 373.333,206.5 371.5,207C 363.5,207.667 355.5,207.667 347.5,207C 344.484,205.471 343.151,202.971 343.5,199.5C 343.282,195.934 344.616,193.268 347.5,191.5 Z" /></g><g><path style="opacity:0.95" d="M 267.5,367.5 C 275.507,367.334 283.507,367.5 291.5,368C 293.333,368.5 294.5,369.667 295,371.5C 295.667,374.167 295.667,376.833 295,379.5C 294.5,381.333 293.333,382.5 291.5,383C 283.5,383.667 275.5,383.667 267.5,383C 264.484,381.471 263.151,378.971 263.5,375.5C 263.282,371.934 264.616,369.268 267.5,367.5 Z" /></g><g><path style="opacity:0.95" d="M 427.5,367.5 C 435.507,367.334 443.507,367.5 451.5,368C 453.333,368.5 454.5,369.667 455,371.5C 455.667,374.167 455.667,376.833 455,379.5C 454.5,381.333 453.333,382.5 451.5,383C 443.5,383.667 435.5,383.667 427.5,383C 424.484,381.471 423.151,378.971 423.5,375.5C 423.282,371.934 424.616,369.268 427.5,367.5 Z" /></g><g><path style="opacity:0.934" d="M 176.5,431.5 C 191.367,429.012 201.534,434.678 207,448.5C 209.982,463.376 204.482,473.543 190.5,479C 175.624,481.982 165.457,476.482 160,462.5C 157.146,447.533 162.646,437.199 176.5,431.5 Z M 180.5,448.5 C 178.856,449.316 177.69,450.65 177,452.5C 176.123,461.489 179.956,464.322 188.5,461C 192.517,452.532 189.85,448.365 180.5,448.5 Z" /></g><g><path style="opacity:0.934" d="M 400.5,431.5 C 415.367,429.012 425.534,434.678 431,448.5C 433.982,463.376 428.482,473.543 414.5,479C 399.624,481.982 389.457,476.482 384,462.5C 381.146,447.533 386.646,437.199 400.5,431.5 Z M 404.5,448.5 C 402.856,449.316 401.69,450.65 401,452.5C 400.123,461.489 403.956,464.322 412.5,461C 416.517,452.532 413.85,448.365 404.5,448.5 Z" /></g></svg>