<svg id="Layer_1" data-name="Layer 1" xmlns="http://www.w3.org/2000/svg" viewBox="0 0 77 43"><defs><style>.cls-1{fill:#1a6d9c;}.cls-2{fill:#fdc83d;}</style></defs><title>XRiLogo</title><path class="cls-1" d="M36.11,3.5H46.32a16.63,16.63,0,0,1,5.58.79,9,9,0,0,1,3.45,2.05,7,7,0,0,1,1.74,2.83,10.24,10.24,0,0,1,.48,3,9.76,9.76,0,0,1-1,4.68,7.92,7.92,0,0,1-3.39,3.19L59,32.31H52.53L47.69,21.49H42V32.31H36.11Zm10.61,13a7.74,7.74,0,0,0,2.34-.3,3.61,3.61,0,0,0,1.47-.85A2.91,2.91,0,0,0,51.28,14a6.87,6.87,0,0,0,.2-1.69,4.55,4.55,0,0,0-.24-1.48,3.08,3.08,0,0,0-.83-1.25,4.15,4.15,0,0,0-1.61-.85,9.55,9.55,0,0,0-2.61-.3H42v8Z"/><path class="cls-1" d="M63.17,3.5H69V8.58H63.17Zm.08,7.75H68.9V32.31H63.25Z"/><polygon class="cls-1" points="33.06 3.5 26.6 3.5 21.77 10.8 24.97 15.58 33.06 3.5"/><polygon class="cls-1" points="34.4 32.31 25.13 18.94 21.84 23.78 27.54 32.31 34.4 32.31"/><polygon class="cls-2" points="20.6 12.53 14.55 3.5 20.48 12.7 20.6 12.53"/><polygon class="cls-2" points="13.58 32.31 20.5 22.14 20.28 21.82 13.58 32.31"/><polygon class="cls-2" points="20.6 12.53 20.48 12.7 14.55 3.5 7.69 3.5 17.05 17.14 7.01 32.31 13.58 32.31 20.28 21.82 20.5 22.14 23.79 17.3 20.6 12.53"/><path class="cls-1" d="M6.09,35.12H8.62v.66H6.86v.81H8.51v.67H6.86v.91H8.73l-.08.66H6.09Z"/><path class="cls-1" d="M9.92,37.44,9,36.12h.86l.46.78.52-.78h.76l-.88,1.28.95,1.43h-.84L10.31,38l-.58.88H8.94Z"/><path class="cls-1" d="M12.31,36.69h-.43v-.57h.43V35.4H13v.72h.63v.57H13v1.25a.37.37,0,0,0,.09.29.35.35,0,0,0,.23.07h.15l.15,0,.1.53a1.74,1.74,0,0,1-.29.07l-.28,0a.89.89,0,0,1-.66-.22,1,1,0,0,1-.21-.71Z"/><path class="cls-1" d="M16.54,38a1.06,1.06,0,0,1-.37.69,1.31,1.31,0,0,1-.85.24,1.32,1.32,0,0,1-1-.38A1.55,1.55,0,0,1,14,37.48a1.9,1.9,0,0,1,.1-.61,1.28,1.28,0,0,1,.28-.45,1.17,1.17,0,0,1,.43-.29,1.63,1.63,0,0,1,.55-.09,1.18,1.18,0,0,1,.94.36,1.4,1.4,0,0,1,.31,1v.29H14.69a.83.83,0,0,0,.17.52.58.58,0,0,0,.47.18.45.45,0,0,0,.5-.36Zm-.67-.81a.6.6,0,0,0-.14-.44.55.55,0,0,0-.43-.16.66.66,0,0,0-.25.05.46.46,0,0,0-.18.13.52.52,0,0,0-.12.19.78.78,0,0,0-.05.23Z"/><path class="cls-1" d="M17.12,36.12h.7v.38a1,1,0,0,1,.39-.35.92.92,0,0,1,.46-.11.89.89,0,0,1,.68.24,1.1,1.1,0,0,1,.23.76v1.79h-.73V37.14a.55.55,0,0,0-.11-.39.39.39,0,0,0-.29-.1.55.55,0,0,0-.24,0,.62.62,0,0,0-.32.29.54.54,0,0,0,0,.22v1.63h-.73Z"/><path class="cls-1" d="M22.07,38.48a1,1,0,0,1-.84.44,1,1,0,0,1-.85-.39,1.73,1.73,0,0,1-.28-1.06,2.08,2.08,0,0,1,.08-.58,1.2,1.2,0,0,1,.23-.45,1.07,1.07,0,0,1,.37-.3,1.13,1.13,0,0,1,.49-.1,1.18,1.18,0,0,1,.41.07.87.87,0,0,1,.37.28V35.12h.73v3.71h-.71Zm0-1A2.21,2.21,0,0,0,22,37a.53.53,0,0,0-.15-.25.41.41,0,0,0-.2-.13l-.22,0a.59.59,0,0,0-.23,0,.53.53,0,0,0-.19.15.7.7,0,0,0-.12.26,1.09,1.09,0,0,0-.05.38,1.58,1.58,0,0,0,0,.41.68.68,0,0,0,.13.27.49.49,0,0,0,.18.14.54.54,0,0,0,.22,0,.63.63,0,0,0,.43-.16.53.53,0,0,0,.15-.25,1.3,1.3,0,0,0,0-.38Z"/><path class="cls-1" d="M25.91,38a1.06,1.06,0,0,1-.37.69,1.31,1.31,0,0,1-.85.24,1.32,1.32,0,0,1-1-.38,1.55,1.55,0,0,1-.34-1.06,1.9,1.9,0,0,1,.1-.61,1.28,1.28,0,0,1,.28-.45,1.17,1.17,0,0,1,.43-.29,1.59,1.59,0,0,1,.55-.09,1.19,1.19,0,0,1,.94.36,1.4,1.4,0,0,1,.31,1v.29H24.06a.83.83,0,0,0,.17.52.57.57,0,0,0,.46.18A.45.45,0,0,0,25.2,38Zm-.67-.81a.64.64,0,0,0-.14-.44.55.55,0,0,0-.43-.16.66.66,0,0,0-.25.05.5.5,0,0,0-.19.13.4.4,0,0,0-.11.19.56.56,0,0,0-.05.23Z"/><path class="cls-1" d="M28.37,38.48a1.08,1.08,0,0,1-1.7.05,1.8,1.8,0,0,1-.28-1.06,2.08,2.08,0,0,1,.08-.58,1.36,1.36,0,0,1,.23-.45,1.07,1.07,0,0,1,.37-.3,1.15,1.15,0,0,1,.5-.1,1.12,1.12,0,0,1,.4.07,1,1,0,0,1,.38.28V35.12h.72v3.71h-.7Zm0-1a1.61,1.61,0,0,0,0-.42.53.53,0,0,0-.15-.25.41.41,0,0,0-.2-.13l-.22,0a.59.59,0,0,0-.23,0,.43.43,0,0,0-.18.15.58.58,0,0,0-.13.26,1.4,1.4,0,0,0-.05.38,1.53,1.53,0,0,0,.05.41.85.85,0,0,0,.12.27.49.49,0,0,0,.18.14.54.54,0,0,0,.22,0,.61.61,0,0,0,.43-.16.53.53,0,0,0,.15-.25,1,1,0,0,0,.05-.38Z"/><path class="cls-1" d="M30.93,35.12h1.32a2.1,2.1,0,0,1,.72.11,1,1,0,0,1,.44.26,1,1,0,0,1,.23.36,1.44,1.44,0,0,1,.06.4,1.21,1.21,0,0,1-.13.6,1,1,0,0,1-.44.41l.76,1.57h-.84l-.62-1.39H31.7v1.39h-.77ZM32.3,36.8a1.21,1.21,0,0,0,.3,0,.43.43,0,0,0,.19-.11.37.37,0,0,0,.1-.17.78.78,0,0,0,0-.22.63.63,0,0,0,0-.19.39.39,0,0,0-.1-.16.52.52,0,0,0-.21-.11,1.51,1.51,0,0,0-.34,0H31.7v1Z"/><path class="cls-1" d="M36.65,38a1.06,1.06,0,0,1-.37.69,1.31,1.31,0,0,1-.85.24,1.32,1.32,0,0,1-1-.38,1.55,1.55,0,0,1-.34-1.06,1.9,1.9,0,0,1,.1-.61,1.28,1.28,0,0,1,.28-.45,1.17,1.17,0,0,1,.43-.29,1.63,1.63,0,0,1,.55-.09,1.18,1.18,0,0,1,.94.36,1.4,1.4,0,0,1,.31,1v.29H34.8a.83.83,0,0,0,.17.52.57.57,0,0,0,.46.18.45.45,0,0,0,.51-.36ZM36,37.18a.64.64,0,0,0-.14-.44.55.55,0,0,0-.43-.16.66.66,0,0,0-.25.05.46.46,0,0,0-.18.13.41.41,0,0,0-.12.19.56.56,0,0,0,0,.23Z"/><path class="cls-1" d="M38.84,38.49a1.69,1.69,0,0,1-.36.3,1.14,1.14,0,0,1-.52.11,1,1,0,0,1-.35,0,.74.74,0,0,1-.28-.14.82.82,0,0,1-.2-.25,1,1,0,0,1-.07-.37.74.74,0,0,1,.13-.46.84.84,0,0,1,.32-.27,1.65,1.65,0,0,1,.46-.14,2.94,2.94,0,0,1,.51,0l.35,0V37a.4.4,0,0,0-.14-.35.57.57,0,0,0-.32-.09c-.29,0-.46.11-.5.33l-.66-.07a.81.81,0,0,1,.37-.61,1.47,1.47,0,0,1,.81-.19,1.62,1.62,0,0,1,.53.07.88.88,0,0,1,.35.22.81.81,0,0,1,.19.34,1.53,1.53,0,0,1,.06.45v1.71h-.68Zm0-.87-.32,0a1.74,1.74,0,0,0-.37,0,.51.51,0,0,0-.21.09.31.31,0,0,0-.11.12.88.88,0,0,0,0,.17.26.26,0,0,0,.09.21.4.4,0,0,0,.26.08.81.81,0,0,0,.46-.13.6.6,0,0,0,.16-.19.58.58,0,0,0,.06-.28Z"/><path class="cls-1" d="M40.15,35.12h.72v3.71h-.72Z"/><path class="cls-1" d="M41.52,35.12h.75v.66h-.75Zm0,1h.73v2.71h-.73Z"/><path class="cls-1" d="M43.07,36.69h-.42v-.57h.42V35.4h.73v.72h.62v.57H43.8v1.25a.37.37,0,0,0,.09.29.33.33,0,0,0,.23.07h.15l.14,0,.11.53a1.63,1.63,0,0,1-.3.07l-.27,0a.86.86,0,0,1-.66-.22.94.94,0,0,1-.22-.71Z"/><path class="cls-1" d="M45.05,39.22a1.1,1.1,0,0,0,.31,0,.33.33,0,0,0,.23-.07.53.53,0,0,0,.15-.25l.09-.23L44.7,36.12h.84l.63,1.78.6-1.78h.79l-1.09,2.79-.18.41a1.32,1.32,0,0,1-.19.29.72.72,0,0,1-.25.18,1.32,1.32,0,0,1-.37.05,1.23,1.23,0,0,1-.27,0l-.28-.06Z"/><path class="cls-1" d="M49.14,35.12h.78v3.71h-.78Z"/><path class="cls-1" d="M50.62,36.12h.7v.38a1,1,0,0,1,.39-.35.92.92,0,0,1,.46-.11.89.89,0,0,1,.68.24,1.1,1.1,0,0,1,.23.76v1.79h-.73V37.14a.55.55,0,0,0-.11-.39.39.39,0,0,0-.29-.1.55.55,0,0,0-.24,0,.62.62,0,0,0-.32.29.54.54,0,0,0,0,.22v1.63h-.73Z"/><path class="cls-1" d="M53.69,35.12h.75v.66h-.75Zm0,1h.73v2.71H53.7Z"/><path class="cls-1" d="M55.24,36.69h-.42v-.57h.42V35.4H56v.72h.62v.57H56v1.25a.37.37,0,0,0,.09.29.33.33,0,0,0,.23.07h.15l.14,0,.11.53a1.63,1.63,0,0,1-.3.07l-.27,0a.86.86,0,0,1-.66-.22.94.94,0,0,1-.22-.71Z"/><path class="cls-1" d="M57,35.12h.75v.66H57Zm0,1h.73v2.71h-.73Z"/><path class="cls-1" d="M60,38.49a1.69,1.69,0,0,1-.36.3,1.14,1.14,0,0,1-.52.11.93.93,0,0,1-.34,0,.71.71,0,0,1-.29-.14.82.82,0,0,1-.2-.25,1,1,0,0,1-.07-.37.74.74,0,0,1,.13-.46.84.84,0,0,1,.32-.27,1.65,1.65,0,0,1,.46-.14,2.94,2.94,0,0,1,.51,0l.35,0V37a.4.4,0,0,0-.14-.35.57.57,0,0,0-.32-.09c-.29,0-.46.11-.5.33l-.66-.07a.84.84,0,0,1,.37-.61,1.47,1.47,0,0,1,.81-.19,1.62,1.62,0,0,1,.53.07.88.88,0,0,1,.35.22.83.83,0,0,1,.2.34,2,2,0,0,1,0,.45v1.71H60Zm0-.87-.32,0a1.74,1.74,0,0,0-.37,0,.51.51,0,0,0-.21.09.22.22,0,0,0-.1.12.47.47,0,0,0,0,.17.26.26,0,0,0,.09.21.42.42,0,0,0,.26.08.81.81,0,0,0,.46-.13A.49.49,0,0,0,60,38a.58.58,0,0,0,.06-.28Z"/><path class="cls-1" d="M61.51,36.69h-.43v-.57h.43V35.4h.73v.72h.62v.57h-.62v1.25a.37.37,0,0,0,.09.29.31.31,0,0,0,.22.07h.15l.15,0,.1.53a1.53,1.53,0,0,1-.29.07l-.27,0a.9.9,0,0,1-.67-.22,1,1,0,0,1-.21-.71Z"/><path class="cls-1" d="M63.31,35.12h.75v.66h-.75Zm0,1H64v2.71h-.72Z"/><path class="cls-1" d="M64.41,36.12h.85l.6,1.89.61-1.89h.81l-1.07,2.71h-.73Z"/><path class="cls-1" d="M70,38a1.06,1.06,0,0,1-.37.69,1.31,1.31,0,0,1-.85.24,1.32,1.32,0,0,1-1-.38,1.5,1.5,0,0,1-.34-1.06,1.66,1.66,0,0,1,.1-.61,1.28,1.28,0,0,1,.28-.45,1.17,1.17,0,0,1,.43-.29,1.59,1.59,0,0,1,.55-.09,1.19,1.19,0,0,1,.94.36,1.4,1.4,0,0,1,.31,1v.29H68.12a.83.83,0,0,0,.17.52.57.57,0,0,0,.46.18.45.45,0,0,0,.51-.36Zm-.67-.81a.64.64,0,0,0-.14-.44.55.55,0,0,0-.43-.16.66.66,0,0,0-.25.05.43.43,0,0,0-.19.13.4.4,0,0,0-.11.19.56.56,0,0,0-.05.23Z"/></svg>